<svg width="24" height="24" viewBox="0 0 24 24" fill="none" xmlns="http://www.w3.org/2000/svg">
<path d="M7.36892 5.76689C7.96324 5.75586 8.55672 5.81679 9.1364 5.94836C9.62447 6.05492 10.0879 6.25321 10.5019 6.53268C10.8844 6.81059 11.1869 7.18421 11.3793 7.61603C11.6004 8.14703 11.7071 8.71868 11.6923 9.29368C11.7175 9.92504 11.5562 10.5498 11.2287 11.0902C10.8842 11.6005 10.4079 12.0081 9.85047 12.2697C10.6069 12.4737 11.2659 12.9408 11.7087 13.5872C12.1338 14.272 12.3474 15.067 12.3229 15.8727C12.337 16.5151 12.2041 17.1522 11.9346 17.7355C11.6855 18.2443 11.3207 18.6877 10.8694 19.0302C10.4048 19.369 9.882 19.6196 9.32694 19.7697C8.75133 19.9289 8.15669 20.0089 7.55946 20.0074H1.0022V5.76689H7.36892ZM6.99057 11.5266C7.45753 11.5459 7.91721 11.4061 8.2944 11.1301C8.47504 10.9693 8.61556 10.7685 8.70473 10.5436C8.7939 10.3188 8.82925 10.0763 8.80795 9.83536C8.82003 9.55398 8.76401 9.27384 8.64463 9.01876C8.54336 8.81567 8.3859 8.64592 8.19096 8.52971C7.99352 8.40179 7.7717 8.31621 7.5395 8.27838C7.28756 8.22958 7.0312 8.20738 6.77462 8.21215H3.97279V11.5393H6.99057V11.5266ZM7.15389 17.5894C7.43629 17.5932 7.71811 17.5627 7.99317 17.4987C8.24453 17.4431 8.48292 17.34 8.69544 17.1947C8.90363 17.0495 9.07184 16.8542 9.18449 16.6267C9.3151 16.3367 9.37512 16.0198 9.3596 15.7021C9.38792 15.4126 9.34958 15.1205 9.2475 14.8481C9.14543 14.5757 8.98235 14.3303 8.77075 14.1307C8.32225 13.8003 7.77263 13.6367 7.21649 13.6679H3.97279V17.5894H7.15389Z" fill="#252525"/>
<path d="M16.5539 17.5365C16.7871 17.7527 17.0617 17.9191 17.3612 18.0258C17.6607 18.1325 17.9787 18.1772 18.296 18.1572C18.7989 18.1699 19.2922 18.0168 19.6996 17.7216C20.0311 17.5061 20.2821 17.1872 20.4137 16.8143H22.7827C22.5303 17.8757 21.9139 18.8151 21.0406 19.4692C20.2029 20.0252 19.2129 20.3068 18.208 20.2749C17.4907 20.2843 16.7789 20.1494 16.1147 19.8784C15.514 19.6278 14.9752 19.2491 14.536 18.7687C14.0985 18.2653 13.7623 17.6821 13.5461 17.0511C13.3034 16.3459 13.1846 15.6039 13.195 14.8581C13.1905 14.1248 13.3133 13.3963 13.5579 12.705C13.8864 11.7325 14.5147 10.889 15.3524 10.2956C16.1901 9.70229 17.1942 9.38957 18.2207 9.40234C18.9785 9.3865 19.7279 9.56386 20.3982 9.9177C21.0042 10.25 21.5269 10.7153 21.9271 11.2787C22.3365 11.8699 22.6299 12.5334 22.7918 13.234C22.9693 13.9863 23.0326 14.7611 22.9796 15.5323H15.9233C15.8661 16.2568 16.0922 16.9753 16.5539 17.5365ZM19.6497 12.1207C19.4522 11.9232 19.2147 11.7703 18.9532 11.6723C18.6917 11.5743 18.4122 11.5336 18.1336 11.5527C17.7639 11.5386 17.3969 11.6205 17.0684 11.7904C16.8079 11.9338 16.5779 12.1268 16.3915 12.3584C16.2263 12.5756 16.1032 12.8218 16.0286 13.0843C15.9613 13.3032 15.9193 13.5291 15.9033 13.7575H20.2739C20.2359 13.162 20.0189 12.5918 19.6515 12.1216L19.6497 12.1207Z" fill="#252525"/>
<path d="M20.8165 6.71777H15.3398V8.11778H20.8165V6.71777Z" fill="#252525"/>
</svg>
