<svg width="24" height="24" viewBox="0 0 24 24" fill="none" xmlns="http://www.w3.org/2000/svg">
<g clip-path="url(#clip0)">
<path fill-rule="evenodd" clip-rule="evenodd" d="M24 12C24 12.8127 23.9174 13.6242 23.7551 14.4153C23.5968 15.1875 23.3625 15.9457 23.0555 16.6705C22.7555 17.3825 22.3833 18.0686 21.9485 18.7084C21.5202 19.3442 21.0268 19.9407 20.4848 20.4844C19.9417 21.0258 19.344 21.5185 18.7094 21.9493C18.0683 22.3816 17.3822 22.7537 16.6708 23.0555C15.9459 23.3613 15.187 23.5957 14.4165 23.7539C13.6255 23.9168 12.8122 24 11.9994 24C11.1861 24 10.3728 23.9168 9.58295 23.7539C8.81125 23.5957 8.0524 23.3613 7.32815 23.0555C6.6168 22.7537 5.93 22.3816 5.28895 21.9493C4.65437 21.5186 4.05668 21.0258 3.51466 20.4844C2.97207 19.9407 2.47866 19.3442 2.04974 18.7084C1.61729 18.0686 1.24459 17.3824 0.943425 16.6705C0.63634 15.9457 0.401399 15.1875 0.242596 14.4153C0.0820555 13.6242 0 12.8127 0 12C0 11.1867 0.082008 10.3734 0.242643 9.58415C0.401446 8.81188 0.636385 8.05252 0.94347 7.32892C1.24464 6.61643 1.61733 5.92973 2.04978 5.28984C2.4787 4.65355 2.97212 4.0582 3.5147 3.51385C4.05673 2.97242 4.65442 2.48087 5.289 2.0508C5.93005 1.61659 6.61685 1.24457 7.3282 0.942197C8.05245 0.635692 8.81125 0.400766 9.583 0.243757C10.3729 0.0820509 11.1862 0 11.9995 0C12.8122 0 13.6256 0.0820509 14.4166 0.243757C15.1871 0.400813 15.946 0.635742 16.6709 0.942197C17.3822 1.24452 18.0683 1.61659 18.7094 2.0508C19.344 2.48087 19.9417 2.97242 20.4848 3.51385C21.0269 4.0582 21.5203 4.65355 21.9486 5.28984C22.3834 5.92973 22.7555 6.61648 23.0555 7.32892C23.3625 8.05252 23.5968 8.81188 23.7551 9.58415C23.9174 10.3734 24 11.1867 24 12ZM7.62695 2.73106C4.76916 4.08051 2.63624 6.71367 1.97116 9.88712C2.24133 9.88947 6.51185 9.9434 11.4322 8.63613C9.6585 5.48496 7.7635 2.91334 7.62695 2.73106ZM12.2813 10.2141C7.00465 11.7937 1.94129 11.6801 1.75965 11.6731C1.7567 11.7832 1.75144 11.8898 1.75144 12C1.75144 14.6326 2.74464 17.0326 4.37715 18.8473C4.37363 18.842 7.1781 13.8668 12.7085 12.0786C12.8421 12.034 12.978 11.9941 13.1128 11.9555C12.8555 11.3731 12.5749 10.7895 12.2813 10.2141ZM18.7674 4.309C16.9632 2.71815 14.5941 1.75317 11.9994 1.75317C11.1668 1.75317 10.3587 1.85396 9.5847 2.04028C9.73815 2.24655 11.6631 4.80004 13.4157 8.01798C17.2826 6.56836 18.7422 4.34648 18.7674 4.309ZM13.8112 13.6535C13.7884 13.6611 13.7656 13.6676 13.7433 13.6758C7.6968 15.7836 5.7222 20.0313 5.70085 20.0777C7.44065 21.4306 9.62275 22.2469 11.9994 22.2469C13.4186 22.2469 14.7705 21.9579 16.0004 21.4347C15.8487 20.5395 15.2533 17.4012 13.8112 13.6535ZM17.7262 20.4984C20.0272 18.9457 21.6614 16.4801 22.1173 13.6242C21.9064 13.5562 19.0392 12.6486 15.7315 13.1789C17.0756 16.8727 17.6218 19.8809 17.7262 20.4984ZM14.2045 9.54494C14.4424 10.0336 14.6727 10.531 14.8854 11.0309C14.9609 11.2102 15.0348 11.3859 15.1068 11.5617C18.6273 11.1187 22.0957 11.8641 22.2439 11.8945C22.2205 9.46523 21.3515 7.23574 19.9136 5.49027C19.8943 5.51771 18.2506 7.89255 14.2045 9.54494Z" fill="#2A2A31"/>
</g>
<defs>
<clipPath id="clip0">
<rect width="24" height="24" fill="white"/>
</clipPath>
</defs>
</svg>
