<svg width="48" height="48" viewBox="0 0 48 48" fill="none" xmlns="http://www.w3.org/2000/svg">
<path d="M24 45.9746C36.1362 45.9746 45.9746 36.1362 45.9746 24C45.9746 11.8638 36.1362 2.02539 24 2.02539C11.8638 2.02539 2.02541 11.8638 2.02541 24C2.02541 36.1362 11.8638 45.9746 24 45.9746Z" stroke="#FB5B0D" stroke-width="3" stroke-miterlimit="10"/>
<path d="M24 45.9746C30.2871 45.9746 35.3838 36.1362 35.3838 24C35.3838 11.8638 30.2871 2.02539 24 2.02539C17.7129 2.02539 12.6162 11.8638 12.6162 24C12.6162 36.1362 17.7129 45.9746 24 45.9746Z" stroke="#FB5B0D" stroke-width="3" stroke-miterlimit="10"/>
<path d="M3.60329 17H44.3392" stroke="#FB5B0D" stroke-width="3" stroke-miterlimit="10"/>
<path d="M3.60329 31H44.3392" stroke="#FB5B0D" stroke-width="3" stroke-miterlimit="10"/>
<path d="M24 45.8731V2.12646" stroke="#FB5B0D" stroke-width="3" stroke-miterlimit="10"/>
</svg>
