<svg width="48" height="48" viewBox="0 0 48 48" fill="none" xmlns="http://www.w3.org/2000/svg">
<path fill-rule="evenodd" clip-rule="evenodd" d="M11.4735 34.4023C8.01429 30.9031 5.29204 26.7346 3.73119 23.7498C5.29204 20.765 8.01429 16.5965 11.4735 13.0973C15.2306 9.29685 19.623 6.51855 24.1662 6.51855C28.7094 6.51855 33.1018 9.29685 36.8589 13.0973C40.3181 16.5965 43.0404 20.765 44.6012 23.7498C43.461 25.9301 41.694 28.7555 39.4633 31.4924C39.349 31.6327 39.2336 31.7725 39.1172 31.9119L41.0948 34.2196C41.331 33.943 41.5624 33.6655 41.7888 33.3877C44.4029 30.1804 46.4217 26.8566 47.6288 24.4145L47.9574 23.7498L47.6288 23.0851C46.0287 19.8479 42.9836 15.0255 38.9924 10.9882C35.0339 6.98401 29.9104 3.51855 24.1662 3.51855C18.422 3.51855 13.2985 6.98401 9.34004 10.9882C5.34884 15.0255 2.30366 19.8479 0.703541 23.0851L0.375 23.7498L0.703541 24.4145C2.30366 27.6517 5.34884 32.4741 9.34004 36.5114C13.2985 40.5156 18.422 43.9811 24.1662 43.9811C26.7687 43.9811 29.2425 43.267 31.5233 42.1278C31.65 42.0645 31.7763 41.9998 31.902 41.9338L29.8906 39.5866C28.0259 40.4754 26.109 40.9811 24.1662 40.9811C19.623 40.9811 15.2306 38.2028 11.4735 34.4023Z" fill="#FB5B0D"/>
<path d="M30.9418 31.5C33.2889 29.574 34.7778 26.7047 34.7778 23.5C34.7778 17.701 29.9027 13 23.8889 13C17.8751 13 13 17.701 13 23.5C13 29.299 17.8751 34 23.8889 34C26.5793 34 29.0418 33.0591 30.9418 31.5ZM30.9418 31.5L41 43" stroke="#FB5B0D" stroke-width="3"/>
</svg>
