<svg width="48" height="48" viewBox="0 0 48 48" fill="none" xmlns="http://www.w3.org/2000/svg">
<path d="M0 1.99438H48" stroke="#FB5B0D" stroke-width="3" stroke-miterlimit="10"/>
<path d="M7.448 1.99438V35.4104" stroke="#FB5B0D" stroke-width="3" stroke-miterlimit="10"/>
<path d="M7.44799 46.0056C10.3823 46.0056 12.761 43.6336 12.761 40.7075C12.761 37.7815 10.3823 35.4094 7.44799 35.4094C4.51371 35.4094 2.13499 37.7815 2.13499 40.7075C2.13499 43.6336 4.51371 46.0056 7.44799 46.0056Z" stroke="#FB5B0D" stroke-width="3" stroke-miterlimit="10"/>
<path d="M24.748 1.99438V35.4104" stroke="#FB5B0D" stroke-width="3" stroke-miterlimit="10"/>
<path d="M24.748 46.0056C27.6823 46.0056 30.061 43.6336 30.061 40.7075C30.061 37.7815 27.6823 35.4094 24.748 35.4094C21.8137 35.4094 19.435 37.7815 19.435 40.7075C19.435 43.6336 21.8137 46.0056 24.748 46.0056Z" stroke="#FB5B0D" stroke-width="3" stroke-miterlimit="10"/>
<path d="M40.549 38.1707C43.4833 38.1707 45.862 35.7986 45.862 32.8726C45.862 29.9465 43.4833 27.5745 40.549 27.5745C37.6147 27.5745 35.236 29.9465 35.236 32.8726C35.236 35.7986 37.6147 38.1707 40.549 38.1707Z" stroke="#FB5B0D" stroke-width="3" stroke-miterlimit="10"/>
<path d="M39.354 27.7101L36.599 1.99438" stroke="#FB5B0D" stroke-width="3" stroke-miterlimit="10"/>
</svg>
