<svg width="48" height="48" viewBox="0 0 48 48" fill="none" xmlns="http://www.w3.org/2000/svg">
<path d="M2.01147 33.7191V16.7363H45.9885V33.7191" stroke="#FB5B0D" stroke-width="3" stroke-miterlimit="10"/>
<path d="M9.40971 21.7632V47.9999" stroke="#FB5B0D" stroke-width="3" stroke-miterlimit="10"/>
<path d="M19.4108 21.7632V47.9999" stroke="#FB5B0D" stroke-width="3" stroke-miterlimit="10"/>
<path d="M28.3156 21.7632V47.9999" stroke="#FB5B0D" stroke-width="3" stroke-miterlimit="10"/>
<path d="M38.3167 21.7632V47.9999" stroke="#FB5B0D" stroke-width="3" stroke-miterlimit="10"/>
<path d="M14.4103 10.8256C16.8693 10.8256 18.8627 8.84874 18.8627 6.41013C18.8627 3.97152 16.8693 1.99463 14.4103 1.99463C11.9513 1.99463 9.95784 3.97152 9.95784 6.41013C9.95784 8.84874 11.9513 10.8256 14.4103 10.8256Z" stroke="#FB5B0D" stroke-width="3" stroke-miterlimit="10"/>
<path d="M33.3162 10.8256C35.7752 10.8256 37.7686 8.84874 37.7686 6.41013C37.7686 3.97152 35.7752 1.99463 33.3162 1.99463C30.8572 1.99463 28.8638 3.97152 28.8638 6.41013C28.8638 8.84874 30.8572 10.8256 33.3162 10.8256Z" stroke="#FB5B0D" stroke-width="3" stroke-miterlimit="10"/>
</svg>
